<?xml version="1.0" encoding="UTF-8" standalone="no"?>
<!-- Created with Inkscape (http://www.inkscape.org/) -->

<svg
   xmlns:dc="http://purl.org/dc/elements/1.1/"
   xmlns:cc="http://creativecommons.org/ns#"
   xmlns:rdf="http://www.w3.org/1999/02/22-rdf-syntax-ns#"
   xmlns:svg="http://www.w3.org/2000/svg"
   xmlns="http://www.w3.org/2000/svg"
   xmlns:sodipodi="http://sodipodi.sourceforge.net/DTD/sodipodi-0.dtd"
   xmlns:inkscape="http://www.inkscape.org/namespaces/inkscape"
   width="144.25015mm"
   height="34.127419mm"
   viewBox="0 0 511.12258 120.92392"
   id="svg2"
   version="1.1"
   inkscape:version="0.91 r13725"
   sodipodi:docname="logo_bvii_text.svg"
   inkscape:export-filename="/home/bart/dev/bvii/website/static/images/logo/logo_bvii.png"
   inkscape:export-xdpi="344.41"
   inkscape:export-ydpi="344.41">
  <defs
     id="defs4" />
  <sodipodi:namedview
     id="base"
     pagecolor="#ffffff"
     bordercolor="#666666"
     borderopacity="1.0"
     inkscape:pageopacity="0"
     inkscape:pageshadow="2"
     inkscape:zoom="0.49497475"
     inkscape:cx="503.69358"
     inkscape:cy="-309.85531"
     inkscape:document-units="px"
     inkscape:current-layer="flowRoot4684"
     showgrid="false"
     inkscape:window-width="2502"
     inkscape:window-height="1403"
     inkscape:window-x="58"
     inkscape:window-y="0"
     inkscape:window-maximized="1"
     fit-margin-top="0"
     fit-margin-left="0"
     fit-margin-right="0"
     fit-margin-bottom="0" />
  <metadata
     id="metadata7">
    <rdf:RDF>
      <cc:Work
         rdf:about="">
        <dc:format>image/svg+xml</dc:format>
        <dc:type
           rdf:resource="http://purl.org/dc/dcmitype/StillImage" />
        <dc:title></dc:title>
      </cc:Work>
    </rdf:RDF>
  </metadata>
  <g
     inkscape:label="Layer 1"
     inkscape:groupmode="layer"
     id="layer1"
     transform="translate(-21.478777,-911.13733)"
     style="opacity:1">
    <g
       transform="matrix(1.8344041,0,0,1.8344041,-187.47403,375.56619)"
       style="font-style:normal;font-variant:normal;font-weight:normal;font-stretch:normal;font-size:40px;line-height:125%;font-family:Metro;-inkscape-font-specification:'Metro, Normal';text-align:start;letter-spacing:0px;word-spacing:0px;writing-mode:lr-tb;text-anchor:start;opacity:1;fill:#0089cb;fill-opacity:1;stroke:none;stroke-width:1px;stroke-linecap:butt;stroke-linejoin:miter;stroke-opacity:1"
       id="flowRoot4684">
      <path
         d="m 153.42773,311.87919 q 0,3.28 -1.76,6.4 -1.76,3.12 -4.56,4.8 4.24,1.12 7.04,4.64 2.8,3.52 2.8,7.92 l 0,5.04 q 0,3.2 -1.76,6.32 -1.76,3.12 -4.72,5.04 -2.88,1.92 -6.08,1.92 l -7.12,0 q -0.4,1.6 -1.76,2.64 -1.36,1.12 -3.12,1.12 -2,0 -3.44,-1.44 -1.44,-1.44 -1.44,-3.44 0,-2.08 1.44,-3.52 1.44,-1.44 3.44,-1.44 1.84,0 3.2,1.12 1.36,1.04 1.68,2.8 l 7.12,0 q 2.8,0 5.2,-1.52 2.4,-1.6 3.76,-4.16 1.36,-2.56 1.36,-5.44 l 0,-5.04 q 0,-4.08 -2.96,-7.2 -2.96,-3.12 -7.04,-3.76 l -7.6,0 q -0.48,1.44 -1.84,2.4 -1.28,0.88 -2.88,0.88 -2,0 -3.44,-1.44 -1.44,-1.44 -1.44,-3.44 0,-2 1.44,-3.44 1.44,-1.44 3.44,-1.44 1.76,0 3.04,1.04 1.36,1.04 1.76,2.64 l 3.44,0 q 4.4,0 7.36,-2.8 3.04,-2.88 3.04,-7.2 l 0,-3.36 q 0,-4.48 -3.04,-7.52 -3.04,-3.04 -7.68,-3.04 l -16.72,0 q -0.64,3.04 -3.6,3.68 l 0,46.32 q 1.68,0.4 2.72,1.76 1.04,1.36 1.04,3.12 0,2 -1.44,3.44 -1.44,1.44 -3.44,1.44 -2,0 -3.52,-1.44 -1.44,-1.44 -1.44,-3.44 0,-1.76 1.04,-3.12 1.12,-1.36 2.8,-1.76 l 0,-46.24 q -1.6,-0.4 -2.72,-1.76 -1.12,-1.36 -1.12,-3.12 0,-2 1.44,-3.44 1.44,-1.44 3.52,-1.44 1.68,0 2.96,0.96 1.28,0.96 1.76,2.56 l 16.8,0 q 3.52,0 6.48,1.84 3.04,1.76 4.8,4.88 1.76,3.04 1.76,6.8 l 0,2.88 z m -34.56,-12.64 q 1.04,0 1.76,-0.64 0.72,-0.72 0.72,-1.68 0,-1.04 -0.72,-1.76 -0.72,-0.72 -1.76,-0.72 -1.04,0 -1.76,0.72 -0.72,0.72 -0.72,1.76 0,0.96 0.72,1.68 0.72,0.64 1.76,0.64 z m 13.52,26.32 q 1.04,0 1.76,-0.64 0.72,-0.72 0.72,-1.76 0,-1.04 -0.72,-1.68 -0.72,-0.72 -1.76,-0.72 -0.96,0 -1.68,0.72 -0.72,0.64 -0.72,1.68 0,1.04 0.72,1.76 0.72,0.64 1.68,0.64 z m -11.04,27.36 q 0,-1.04 -0.72,-1.76 -0.72,-0.72 -1.76,-0.72 -1.04,0 -1.76,0.72 -0.72,0.72 -0.72,1.76 0,0.88 0.72,1.6 0.72,0.72 1.76,0.72 1.04,0 1.76,-0.72 0.72,-0.72 0.72,-1.6 z m 11.04,2.32 q 1.04,0 1.76,-0.72 0.72,-0.72 0.72,-1.6 0,-1.04 -0.72,-1.76 -0.72,-0.72 -1.76,-0.72 -0.96,0 -1.68,0.72 -0.72,0.72 -0.72,1.76 0,0.88 0.72,1.6 0.72,0.72 1.68,0.72 z"
         style="font-style:normal;font-variant:normal;font-weight:normal;font-stretch:normal;font-size:80px;line-height:125%;font-family:Metro;-inkscape-font-specification:'Metro, Normal';text-align:start;writing-mode:lr-tb;text-anchor:start;fill:#0089cb;fill-opacity:1"
         id="path4225"
         inkscape:connector-curvature="0" />
      <path
         d="m 199.15648,316.99919 q -2.08,-1.68 -2.08,-4.16 0,-2.08 1.44,-3.52 1.44,-1.52 3.52,-1.52 2.08,0 3.52,1.52 1.52,1.44 1.52,3.52 0,2.08 -1.52,3.6 -1.44,1.44 -3.52,1.44 -0.56,0 -0.8,-0.08 l -13.36,30.96 q 2.24,1.52 2.24,4.08 0,2.08 -1.52,3.52 -1.44,1.52 -3.52,1.52 -2.16,0 -3.68,-1.52 -1.44,-1.44 -1.44,-3.52 0,-2.72 2.16,-4.08 l -13.36,-30.96 q -0.24,0.08 -0.8,0.08 -2,0 -3.52,-1.52 -1.52,-1.52 -1.52,-3.52 0,-2.08 1.52,-3.52 1.52,-1.52 3.52,-1.52 2.08,0 3.52,1.52 1.52,1.44 1.52,3.52 0,2.48 -2.08,4.16 l 13.52,30.88 1.2,0 13.52,-30.88 z m -31.2,-1.68 q 1.04,0 1.68,-0.64 0.72,-0.72 0.72,-1.76 0,-1.04 -0.72,-1.76 -0.64,-0.72 -1.68,-0.72 -1.04,0 -1.76,0.72 -0.72,0.72 -0.72,1.76 0,1.04 0.72,1.76 0.72,0.64 1.76,0.64 z m 34.08,0 q 1.12,0 1.84,-0.64 0.72,-0.72 0.72,-1.76 0,-1.04 -0.8,-1.76 -0.72,-0.72 -1.76,-0.72 -1.04,0 -1.76,0.72 -0.72,0.72 -0.72,1.76 0,1.04 0.72,1.76 0.72,0.64 1.76,0.64 z m -16.96,40.08 q 1.04,0 1.68,-0.72 0.72,-0.72 0.72,-1.84 0,-1.04 -0.72,-1.68 -0.64,-0.72 -1.68,-0.72 -1.12,0 -1.92,0.72 -0.72,0.64 -0.72,1.68 0,1.04 0.72,1.76 0.8,0.8 1.92,0.8 z"
         style="font-style:normal;font-variant:normal;font-weight:normal;font-stretch:normal;font-size:80px;line-height:125%;font-family:Metro;-inkscape-font-specification:'Metro, Normal';text-align:start;writing-mode:lr-tb;text-anchor:start;fill:#0089cb;fill-opacity:1"
         id="path4227"
         inkscape:connector-curvature="0" />
      <path
         d="m 231.68648,347.95919 q 1.68,0.4 2.72,1.76 1.12,1.36 1.12,3.12 0,2 -1.44,3.44 -1.44,1.44 -3.44,1.44 -2.08,0 -3.52,-1.44 -1.36,-1.44 -1.36,-3.44 0,-1.84 1.04,-3.2 1.04,-1.36 2.72,-1.68 l 0,-46.4 q -1.68,-0.32 -2.72,-1.6 -1.04,-1.36 -1.04,-3.12 0,-2.08 1.36,-3.44 1.44,-1.36 3.52,-1.36 2,0 3.44,1.44 1.44,1.36 1.44,3.36 0,1.68 -1.12,3.04 -1.04,1.28 -2.72,1.68 l 0,46.4 z m -3.52,-51.12 q 0,1.04 0.64,1.76 0.72,0.72 1.76,0.72 0.96,0 1.68,-0.72 0.72,-0.72 0.72,-1.76 0,-1.04 -0.72,-1.68 -0.72,-0.72 -1.68,-0.72 -1.04,0 -1.76,0.72 -0.64,0.64 -0.64,1.68 z m 2.4,58.4 q 0.96,0 1.68,-0.72 0.72,-0.64 0.72,-1.68 0,-1.04 -0.72,-1.68 -0.72,-0.72 -1.68,-0.72 -1.04,0 -1.76,0.72 -0.64,0.64 -0.64,1.68 0,1.04 0.64,1.68 0.72,0.72 1.76,0.72 z"
         style="font-style:normal;font-variant:normal;font-weight:normal;font-stretch:normal;font-size:80px;line-height:125%;font-family:Metro;-inkscape-font-specification:'Metro, Normal';text-align:start;writing-mode:lr-tb;text-anchor:start;fill:#0089cb;fill-opacity:1"
         id="path4229"
         inkscape:connector-curvature="0" />
      <path
         d="m 271.68648,347.95919 q 1.68,0.4 2.72,1.76 1.12,1.36 1.12,3.12 0,2 -1.44,3.44 -1.44,1.44 -3.44,1.44 -2.08,0 -3.52,-1.44 -1.36,-1.44 -1.36,-3.44 0,-1.84 1.04,-3.2 1.04,-1.36 2.72,-1.68 l 0,-46.4 q -1.68,-0.32 -2.72,-1.6 -1.04,-1.36 -1.04,-3.12 0,-2.08 1.36,-3.44 1.44,-1.36 3.52,-1.36 2,0 3.44,1.44 1.44,1.36 1.44,3.36 0,1.68 -1.12,3.04 -1.04,1.28 -2.72,1.68 l 0,46.4 z m -3.52,-51.12 q 0,1.04 0.64,1.76 0.72,0.72 1.76,0.72 0.96,0 1.68,-0.72 0.72,-0.72 0.72,-1.76 0,-1.04 -0.72,-1.68 -0.72,-0.72 -1.68,-0.72 -1.04,0 -1.76,0.72 -0.64,0.64 -0.64,1.68 z m 2.4,58.4 q 0.96,0 1.68,-0.72 0.72,-0.64 0.72,-1.68 0,-1.04 -0.72,-1.68 -0.72,-0.72 -1.68,-0.72 -1.04,0 -1.76,0.72 -0.64,0.64 -0.64,1.68 0,1.04 0.64,1.68 0.72,0.72 1.76,0.72 z"
         style="font-style:normal;font-variant:normal;font-weight:normal;font-stretch:normal;font-size:80px;line-height:125%;font-family:Metro;-inkscape-font-specification:'Metro, Normal';text-align:start;writing-mode:lr-tb;text-anchor:start;fill:#0089cb;fill-opacity:1"
         id="path4231"
         inkscape:connector-curvature="0" />
      <g
         transform="matrix(0.74576223,0,0,0.74576223,85.349596,76.445039)"
         style="font-style:normal;font-variant:normal;font-weight:normal;font-stretch:normal;font-size:21.80544662px;line-height:125%;font-family:Metro;-inkscape-font-specification:'Metro, Normal';text-align:start;letter-spacing:0px;word-spacing:0px;writing-mode:lr-tb;text-anchor:start;fill:#0089cb;fill-opacity:1;stroke:none;stroke-width:1px;stroke-linecap:butt;stroke-linejoin:miter;stroke-opacity:1"
         id="flowRoot4175">
        <path
           d="m 302.03473,291.48883 -6.91776,0 0,15.92905 7.07705,0 c 3.59541,0 5.80272,-1.63842 5.80272,-4.36911 0,-2.13905 -1.27432,-3.66368 -3.41336,-4.02778 1.72944,-0.43236 2.79896,-1.77495 2.79896,-3.5499 0,-2.48038 -2.04802,-3.98226 -5.34761,-3.98226 z m -0.13654,6.59918 -4.09604,0 0,-4.18707 4.09604,0 c 1.70669,-0.0227 2.7307,0.72819 2.7307,2.04802 0,1.36535 -1.02401,2.13905 -2.7307,2.13905 z m 0,6.91775 -4.09604,0 0,-4.55115 4.09604,0 c 2.09354,-0.0228 3.3451,0.84196 3.3451,2.25282 0,1.47913 -1.25156,2.32109 -3.3451,2.29833 z"
           style="font-style:normal;font-variant:normal;font-weight:normal;font-stretch:normal;font-size:22.75578499px;line-height:100%;font-family:Montserrat;-inkscape-font-specification:'Montserrat, Normal';text-align:start;writing-mode:lr-tb;text-anchor:start;fill:#0089cb;fill-opacity:1"
           id="path4412" />
        <path
           d="m 319.37642,295.3118 0,5.96202 c 0,2.11628 -1.22882,3.73194 -3.32235,3.77746 -1.75219,0 -2.82172,-1.11504 -2.82172,-2.9355 l 0,-6.80398 -2.61691,0 0,7.53216 c 0,2.88999 1.66117,4.66494 4.43738,4.66494 1.97975,-0.0228 3.50439,-0.7737 4.3236,-2.45762 l 0,2.3666 2.61691,0 0,-12.10608 -2.61691,0 z"
           style="font-style:normal;font-variant:normal;font-weight:normal;font-stretch:normal;font-size:22.75578499px;line-height:100%;font-family:Montserrat;-inkscape-font-specification:'Montserrat, Normal';text-align:start;writing-mode:lr-tb;text-anchor:start;fill:#0089cb;fill-opacity:1"
           id="path4414" />
        <path
           d="m 328.4638,297.72391 0,-2.41211 -2.61692,0 0,12.10608 2.61692,0 0,-6.32611 c 0.2048,-2.07078 1.75219,-3.50439 4.18706,-3.36786 l 0,-2.50313 c -1.91148,0 -3.36786,0.86472 -4.18706,2.50313 z"
           style="font-style:normal;font-variant:normal;font-weight:normal;font-stretch:normal;font-size:22.75578499px;line-height:100%;font-family:Montserrat;-inkscape-font-specification:'Montserrat, Normal';text-align:start;writing-mode:lr-tb;text-anchor:start;fill:#0089cb;fill-opacity:1"
           id="path4416" />
        <path
           d="m 339.80827,295.22078 c -3.59542,0.0228 -6.12131,2.50313 -6.12131,6.16681 0,3.64093 2.45762,6.12131 6.18957,6.12131 2.09353,0 3.82297,-0.75094 5.00628,-2.04802 l -1.38811,-1.47913 c -0.88747,0.91024 -2.09353,1.41086 -3.41337,1.41086 -1.91148,0 -3.3451,-1.16054 -3.7547,-3.02652 l 9.14783,0 c 0.31858,-4.36911 -1.41086,-7.14531 -5.66619,-7.14531 z m -3.52715,5.23383 c 0.27307,-1.93424 1.63842,-3.1403 3.5499,-3.1403 1.97975,0 3.27683,1.1833 3.36786,3.1403 l -6.91776,0 z"
           style="font-style:normal;font-variant:normal;font-weight:normal;font-stretch:normal;font-size:22.75578499px;line-height:100%;font-family:Montserrat;-inkscape-font-specification:'Montserrat, Normal';text-align:start;writing-mode:lr-tb;text-anchor:start;fill:#0089cb;fill-opacity:1"
           id="path4418" />
        <path
           d="m 358.03316,307.41788 -0.0228,-7.94177 c -0.0228,-2.66243 -1.77495,-4.25533 -4.89249,-4.25533 -2.29834,0 -3.52715,0.52338 -5.21108,1.52463 l 1.06953,1.82047 c 1.20605,-0.81921 2.41211,-1.22882 3.57265,-1.22882 1.91149,0 2.88999,0.91024 2.88999,2.43487 l 0,0.3641 -3.66368,0 c -2.91274,0.0227 -4.57392,1.43361 -4.57392,3.64092 0,2.13905 1.63842,3.75471 4.25534,3.75471 1.75219,0 3.14029,-0.52339 4.00501,-1.59291 l 0,1.47913 2.57141,0 z m -6.03028,-1.957 c -1.45638,0 -2.34385,-0.70543 -2.34385,-1.79771 0,-1.16054 0.79645,-1.61566 2.50314,-1.61566 l 3.27683,0 0,1.11504 c -0.13654,1.31983 -1.57015,2.29833 -3.43612,2.29833 z"
           style="font-style:normal;font-variant:normal;font-weight:normal;font-stretch:normal;font-size:22.75578499px;line-height:100%;font-family:Montserrat;-inkscape-font-specification:'Montserrat, Normal';text-align:start;writing-mode:lr-tb;text-anchor:start;fill:#0089cb;fill-opacity:1"
           id="path4420" />
        <path
           d="m 369.91025,295.3118 0,5.96202 c 0,2.11628 -1.22881,3.73194 -3.32234,3.77746 -1.7522,0 -2.82172,-1.11504 -2.82172,-2.9355 l 0,-6.80398 -2.61691,0 0,7.53216 c 0,2.88999 1.66117,4.66494 4.43737,4.66494 1.97976,-0.0228 3.5044,-0.7737 4.3236,-2.45762 l 0,2.3666 2.61692,0 0,-12.10608 -2.61692,0 z"
           style="font-style:normal;font-variant:normal;font-weight:normal;font-stretch:normal;font-size:22.75578499px;line-height:100%;font-family:Montserrat;-inkscape-font-specification:'Montserrat, Normal';text-align:start;writing-mode:lr-tb;text-anchor:start;fill:#0089cb;fill-opacity:1"
           id="path4422" />
        <path
           d="m 293.04619,318.0676 4.68769,12.10608 2.70794,0 4.64218,-12.10608 -2.61691,0 -3.32235,9.53467 -3.36785,-9.53467 -2.7307,0 z"
           style="font-style:normal;font-variant:normal;font-weight:normal;font-stretch:normal;font-size:22.75578499px;line-height:100%;font-family:Montserrat;-inkscape-font-specification:'Montserrat, Normal';text-align:start;writing-mode:lr-tb;text-anchor:start;fill:#0089cb;fill-opacity:1"
           id="path4424" />
        <path
           d="m 311.65723,317.97658 c -3.75471,0 -6.32611,2.48038 -6.32611,6.1213 0,3.66368 2.5714,6.16682 6.32611,6.16682 3.73194,0 6.30335,-2.50314 6.30335,-6.16682 0,-3.64092 -2.57141,-6.1213 -6.30335,-6.1213 z m 0,2.23006 c 2.1618,0 3.68643,1.61566 3.68643,3.93675 0,2.34385 -1.52463,3.93675 -3.68643,3.93675 -2.18456,0 -3.7092,-1.5929 -3.7092,-3.93675 0,-2.32109 1.52464,-3.93675 3.7092,-3.93675 z"
           style="font-style:normal;font-variant:normal;font-weight:normal;font-stretch:normal;font-size:22.75578499px;line-height:100%;font-family:Montserrat;-inkscape-font-specification:'Montserrat, Normal';text-align:start;writing-mode:lr-tb;text-anchor:start;fill:#0089cb;fill-opacity:1"
           id="path4426" />
        <path
           d="m 325.87959,317.97658 c -3.7547,0 -6.32611,2.48038 -6.32611,6.1213 0,3.66368 2.57141,6.16682 6.32611,6.16682 3.73195,0 6.30335,-2.50314 6.30335,-6.16682 0,-3.64092 -2.5714,-6.1213 -6.30335,-6.1213 z m 0,2.23006 c 2.1618,0 3.68644,1.61566 3.68644,3.93675 0,2.34385 -1.52464,3.93675 -3.68644,3.93675 -2.18455,0 -3.70919,-1.5929 -3.70919,-3.93675 0,-2.32109 1.52464,-3.93675 3.70919,-3.93675 z"
           style="font-style:normal;font-variant:normal;font-weight:normal;font-stretch:normal;font-size:22.75578499px;line-height:100%;font-family:Montserrat;-inkscape-font-specification:'Montserrat, Normal';text-align:start;writing-mode:lr-tb;text-anchor:start;fill:#0089cb;fill-opacity:1"
           id="path4428" />
        <path
           d="m 337.53055,320.47971 0,-2.41211 -2.61691,0 0,12.10608 2.61691,0 0,-6.32611 c 0.20481,-2.07078 1.7522,-3.50439 4.18707,-3.36786 l 0,-2.50313 c -1.91149,0 -3.36786,0.86472 -4.18707,2.50313 z"
           style="font-style:normal;font-variant:normal;font-weight:normal;font-stretch:normal;font-size:22.75578499px;line-height:100%;font-family:Montserrat;-inkscape-font-specification:'Montserrat, Normal';text-align:start;writing-mode:lr-tb;text-anchor:start;fill:#0089cb;fill-opacity:1"
           id="path4430" />
        <path
           d="m 295.11697,337.00042 0,15.92905 2.68518,0 0,-15.92905 -2.68518,0 z"
           style="font-style:normal;font-variant:normal;font-weight:normal;font-stretch:normal;font-size:22.75578499px;line-height:100%;font-family:Montserrat;-inkscape-font-specification:'Montserrat, Normal';text-align:start;writing-mode:lr-tb;text-anchor:start;fill:#0089cb;fill-opacity:1"
           id="path4432" />
        <path
           d="m 308.92369,340.73237 c -2.04802,0 -3.59542,0.72819 -4.46014,2.41212 l 0,-2.32109 -2.61691,0 0,12.10607 2.61691,0 0,-6.43988 c 0.18205,-1.88873 1.43362,-3.27684 3.43613,-3.29959 1.82046,0 2.91274,1.11503 2.91274,2.93549 l 0,6.80398 2.61691,0 0,-7.53216 c 0,-2.88999 -1.68393,-4.66494 -4.50564,-4.66494 z"
           style="font-style:normal;font-variant:normal;font-weight:normal;font-stretch:normal;font-size:22.75578499px;line-height:100%;font-family:Montserrat;-inkscape-font-specification:'Montserrat, Normal';text-align:start;writing-mode:lr-tb;text-anchor:start;fill:#0089cb;fill-opacity:1"
           id="path4434" />
        <path
           d="m 321.64666,338.20648 c 0.54614,0 1.16054,0.2048 1.66117,0.5689 l 1.00126,-2.00251 c -0.7737,-0.5689 -1.7522,-0.84197 -2.7307,-0.84197 -2.09353,0 -4.16431,1.34259 -4.16431,4.16431 l 0,1.1833 -1.5929,0 0,1.957 1.5929,0 0,9.69396 2.59416,0 0,-9.69396 3.16306,0 0,-1.957 -3.16306,0 0,-1.43361 c 0,-1.13779 0.75094,-1.63842 1.63842,-1.63842 z"
           style="font-style:normal;font-variant:normal;font-weight:normal;font-stretch:normal;font-size:22.75578499px;line-height:100%;font-family:Montserrat;-inkscape-font-specification:'Montserrat, Normal';text-align:start;writing-mode:lr-tb;text-anchor:start;fill:#0089cb;fill-opacity:1"
           id="path4436" />
        <path
           d="m 329.70185,340.73237 c -3.7547,0 -6.32611,2.48038 -6.32611,6.12131 0,3.66368 2.57141,6.16682 6.32611,6.16682 3.73195,0 6.30335,-2.50314 6.30335,-6.16682 0,-3.64093 -2.5714,-6.12131 -6.30335,-6.12131 z m 0,2.23007 c 2.1618,0 3.68644,1.61566 3.68644,3.93675 0,2.34385 -1.52464,3.93675 -3.68644,3.93675 -2.18455,0 -3.70919,-1.5929 -3.70919,-3.93675 0,-2.32109 1.52464,-3.93675 3.70919,-3.93675 z"
           style="font-style:normal;font-variant:normal;font-weight:normal;font-stretch:normal;font-size:22.75578499px;line-height:100%;font-family:Montserrat;-inkscape-font-specification:'Montserrat, Normal';text-align:start;writing-mode:lr-tb;text-anchor:start;fill:#0089cb;fill-opacity:1"
           id="path4438" />
        <path
           d="m 341.35281,343.23551 0,-2.41211 -2.61691,0 0,12.10607 2.61691,0 0,-6.3261 c 0.2048,-2.07078 1.7522,-3.50439 4.18707,-3.36786 l 0,-2.50314 c -1.91149,0 -3.36786,0.86472 -4.18707,2.50314 z"
           style="font-style:normal;font-variant:normal;font-weight:normal;font-stretch:normal;font-size:22.75578499px;line-height:100%;font-family:Montserrat;-inkscape-font-specification:'Montserrat, Normal';text-align:start;writing-mode:lr-tb;text-anchor:start;fill:#0089cb;fill-opacity:1"
           id="path4440" />
        <path
           d="m 363.50628,340.73237 c -2.20731,0 -3.82297,0.88748 -4.59667,2.91274 -0.56889,-1.84321 -2.04802,-2.91274 -4.20982,-2.91274 -2.00251,0 -3.5499,0.72819 -4.39186,2.43487 l 0,-2.34384 -2.59416,0 0,12.10607 2.59416,0 0,-5.98477 c 0,-2.11629 1.27432,-3.70919 3.36785,-3.77746 1.77495,0 2.84448,1.11504 2.84448,2.95825 l 0,6.80398 2.61691,0 0,-5.98477 c 0,-2.11629 1.25157,-3.70919 3.32235,-3.77746 1.77495,0 2.86723,1.11504 2.86723,2.95825 l 0,6.80398 2.61691,0 0,-7.53216 c 0,-2.88999 -1.66117,-4.66494 -4.43738,-4.66494 z"
           style="font-style:normal;font-variant:normal;font-weight:normal;font-stretch:normal;font-size:22.75578499px;line-height:100%;font-family:Montserrat;-inkscape-font-specification:'Montserrat, Normal';text-align:start;writing-mode:lr-tb;text-anchor:start;fill:#0089cb;fill-opacity:1"
           id="path4442" />
        <path
           d="m 381.27784,352.92947 -0.0228,-7.94176 c -0.0228,-2.66243 -1.77495,-4.25534 -4.89249,-4.25534 -2.29833,0 -3.52715,0.52339 -5.21107,1.52464 l 1.06952,1.82046 c 1.20605,-0.8192 2.41211,-1.22881 3.57266,-1.22881 1.91148,0 2.88998,0.91023 2.88998,2.43487 l 0,0.36409 -3.66368,0 c -2.91274,0.0228 -4.57391,1.43362 -4.57391,3.64093 0,2.13904 1.63841,3.7547 4.25533,3.7547 1.75219,0 3.1403,-0.52338 4.00502,-1.5929 l 0,1.47912 2.5714,0 z m -6.03028,-1.95699 c -1.45637,0 -2.34385,-0.70543 -2.34385,-1.79771 0,-1.16055 0.79645,-1.61566 2.50314,-1.61566 l 3.27683,0 0,1.11503 c -0.13653,1.31984 -1.57015,2.29834 -3.43612,2.29834 z"
           style="font-style:normal;font-variant:normal;font-weight:normal;font-stretch:normal;font-size:22.75578499px;line-height:100%;font-family:Montserrat;-inkscape-font-specification:'Montserrat, Normal';text-align:start;writing-mode:lr-tb;text-anchor:start;fill:#0089cb;fill-opacity:1"
           id="path4444" />
        <path
           d="m 390.97038,350.15327 c -0.70543,0.34134 -1.27432,0.52338 -1.82046,0.52338 -0.81921,0 -1.29708,-0.38685 -1.29708,-1.63841 l 0,-5.80273 3.57266,0 0,-1.957 -3.57266,0 0,-3.32234 -2.59416,0 0,3.32234 -1.70669,0 0,1.957 1.70669,0 0,6.2806 c 0,2.48038 1.57015,3.52714 3.39061,3.52714 1.02401,0 2.02527,-0.31858 2.98101,-0.88747 l -0.65992,-2.00251 z"
           style="font-style:normal;font-variant:normal;font-weight:normal;font-stretch:normal;font-size:22.75578499px;line-height:100%;font-family:Montserrat;-inkscape-font-specification:'Montserrat, Normal';text-align:start;writing-mode:lr-tb;text-anchor:start;fill:#0089cb;fill-opacity:1"
           id="path4446" />
        <path
           d="m 395.32242,335.79437 c -0.86472,0 -1.52463,0.65992 -1.52463,1.57015 0,0.88747 0.65991,1.54739 1.52463,1.54739 0.86472,0 1.52464,-0.65992 1.52464,-1.54739 0,-0.91023 -0.65992,-1.57015 -1.52464,-1.57015 z m -1.29708,5.02903 0,12.10607 2.59416,0 0,-12.10607 -2.59416,0 z"
           style="font-style:normal;font-variant:normal;font-weight:normal;font-stretch:normal;font-size:22.75578499px;line-height:100%;font-family:Montserrat;-inkscape-font-specification:'Montserrat, Normal';text-align:start;writing-mode:lr-tb;text-anchor:start;fill:#0089cb;fill-opacity:1"
           id="path4448" />
        <path
           d="m 405.45337,340.73237 c -3.59541,0.0228 -6.1213,2.50314 -6.1213,6.16682 0,3.64093 2.45762,6.12131 6.18957,6.12131 2.09353,0 3.82297,-0.75094 5.00627,-2.04802 l -1.3881,-1.47913 c -0.88748,0.91023 -2.09353,1.41086 -3.41337,1.41086 -1.91148,0 -3.3451,-1.16055 -3.7547,-3.02652 l 9.14782,0 c 0.31858,-4.36911 -1.41086,-7.14532 -5.66619,-7.14532 z m -3.52714,5.23383 c 0.27307,-1.93424 1.63841,-3.14029 3.5499,-3.14029 1.97975,0 3.27683,1.1833 3.36785,3.14029 l -6.91775,0 z"
           style="font-style:normal;font-variant:normal;font-weight:normal;font-stretch:normal;font-size:22.75578499px;line-height:100%;font-family:Montserrat;-inkscape-font-specification:'Montserrat, Normal';text-align:start;writing-mode:lr-tb;text-anchor:start;fill:#0089cb;fill-opacity:1"
           id="path4450" />
        <path
           d="m 295.11697,359.75622 0,15.92905 2.68518,0 0,-15.92905 -2.68518,0 z"
           style="font-style:normal;font-variant:normal;font-weight:normal;font-stretch:normal;font-size:22.75578499px;line-height:100%;font-family:Montserrat;-inkscape-font-specification:'Montserrat, Normal';text-align:start;writing-mode:lr-tb;text-anchor:start;fill:#0089cb;fill-opacity:1"
           id="path4452" />
        <path
           d="m 308.92369,363.48817 c -2.04802,0 -3.59542,0.72819 -4.46014,2.41212 l 0,-2.32109 -2.61691,0 0,12.10607 2.61691,0 0,-6.43988 c 0.18205,-1.88873 1.43362,-3.27684 3.43613,-3.29959 1.82046,0 2.91274,1.11503 2.91274,2.93549 l 0,6.80398 2.61691,0 0,-7.53216 c 0,-2.88999 -1.68393,-4.66494 -4.50564,-4.66494 z"
           style="font-style:normal;font-variant:normal;font-weight:normal;font-stretch:normal;font-size:22.75578499px;line-height:100%;font-family:Montserrat;-inkscape-font-specification:'Montserrat, Normal';text-align:start;writing-mode:lr-tb;text-anchor:start;fill:#0089cb;fill-opacity:1"
           id="path4454" />
        <path
           d="m 323.9905,363.48817 c -2.04802,0 -3.59541,0.72819 -4.46013,2.41212 l 0,-2.32109 -2.61691,0 0,12.10607 2.61691,0 0,-6.43988 c 0.18205,-1.88873 1.43362,-3.27684 3.43612,-3.29959 1.82047,0 2.91274,1.11503 2.91274,2.93549 l 0,6.80398 2.61692,0 0,-7.53216 c 0,-2.88999 -1.68393,-4.66494 -4.50565,-4.66494 z"
           style="font-style:normal;font-variant:normal;font-weight:normal;font-stretch:normal;font-size:22.75578499px;line-height:100%;font-family:Montserrat;-inkscape-font-specification:'Montserrat, Normal';text-align:start;writing-mode:lr-tb;text-anchor:start;fill:#0089cb;fill-opacity:1"
           id="path4456" />
        <path
           d="m 337.16859,363.48817 c -3.7547,0 -6.32611,2.48038 -6.32611,6.12131 0,3.66368 2.57141,6.16682 6.32611,6.16682 3.73195,0 6.30336,-2.50314 6.30336,-6.16682 0,-3.64093 -2.57141,-6.12131 -6.30336,-6.12131 z m 0,2.23007 c 2.1618,0 3.68644,1.61566 3.68644,3.93675 0,2.34385 -1.52464,3.93675 -3.68644,3.93675 -2.18455,0 -3.70919,-1.5929 -3.70919,-3.93675 0,-2.32109 1.52464,-3.93675 3.70919,-3.93675 z"
           style="font-style:normal;font-variant:normal;font-weight:normal;font-stretch:normal;font-size:22.75578499px;line-height:100%;font-family:Montserrat;-inkscape-font-specification:'Montserrat, Normal';text-align:start;writing-mode:lr-tb;text-anchor:start;fill:#0089cb;fill-opacity:1"
           id="path4458" />
        <path
           d="m 343.8467,363.5792 4.6877,12.10607 2.70793,0 4.64218,-12.10607 -2.61691,0 -3.32235,9.53467 -3.36785,-9.53467 -2.7307,0 z"
           style="font-style:normal;font-variant:normal;font-weight:normal;font-stretch:normal;font-size:22.75578499px;line-height:100%;font-family:Montserrat;-inkscape-font-specification:'Montserrat, Normal';text-align:start;writing-mode:lr-tb;text-anchor:start;fill:#0089cb;fill-opacity:1"
           id="path4460" />
        <path
           d="m 367.18881,375.68527 -0.0228,-7.94177 c -0.0228,-2.66242 -1.77495,-4.25533 -4.89249,-4.25533 -2.29834,0 -3.52715,0.52338 -5.21108,1.52464 l 1.06952,1.82046 c 1.20606,-0.81921 2.41212,-1.22881 3.57266,-1.22881 1.91149,0 2.88999,0.91023 2.88999,2.43487 l 0,0.36409 -3.66369,0 c -2.91274,0.0228 -4.57391,1.43362 -4.57391,3.64093 0,2.13904 1.63842,3.7547 4.25533,3.7547 1.7522,0 3.1403,-0.52338 4.00502,-1.5929 l 0,1.47912 2.57141,0 z m -6.03029,-1.95699 c -1.45637,0 -2.34384,-0.70543 -2.34384,-1.79771 0,-1.16055 0.79645,-1.61566 2.50313,-1.61566 l 3.27684,0 0,1.11503 c -0.13654,1.31984 -1.57015,2.29834 -3.43613,2.29834 z"
           style="font-style:normal;font-variant:normal;font-weight:normal;font-stretch:normal;font-size:22.75578499px;line-height:100%;font-family:Montserrat;-inkscape-font-specification:'Montserrat, Normal';text-align:start;writing-mode:lr-tb;text-anchor:start;fill:#0089cb;fill-opacity:1"
           id="path4462" />
        <path
           d="m 376.88135,372.90907 c -0.70543,0.34133 -1.27433,0.52338 -1.82047,0.52338 -0.81921,0 -1.29708,-0.38685 -1.29708,-1.63842 l 0,-5.80272 3.57266,0 0,-1.957 -3.57266,0 0,-3.32234 -2.59416,0 0,3.32234 -1.70668,0 0,1.957 1.70668,0 0,6.28059 c 0,2.48039 1.57015,3.52715 3.39062,3.52715 1.02401,0 2.02526,-0.31858 2.981,-0.88747 l -0.65991,-2.00251 z"
           style="font-style:normal;font-variant:normal;font-weight:normal;font-stretch:normal;font-size:22.75578499px;line-height:100%;font-family:Montserrat;-inkscape-font-specification:'Montserrat, Normal';text-align:start;writing-mode:lr-tb;text-anchor:start;fill:#0089cb;fill-opacity:1"
           id="path4464" />
        <path
           d="m 381.23339,358.55017 c -0.86472,0 -1.52464,0.65991 -1.52464,1.57015 0,0.88747 0.65992,1.54739 1.52464,1.54739 0.86472,0 1.52464,-0.65992 1.52464,-1.54739 0,-0.91024 -0.65992,-1.57015 -1.52464,-1.57015 z m -1.29708,5.02903 0,12.10607 2.59416,0 0,-12.10607 -2.59416,0 z"
           style="font-style:normal;font-variant:normal;font-weight:normal;font-stretch:normal;font-size:22.75578499px;line-height:100%;font-family:Montserrat;-inkscape-font-specification:'Montserrat, Normal';text-align:start;writing-mode:lr-tb;text-anchor:start;fill:#0089cb;fill-opacity:1"
           id="path4466" />
        <path
           d="m 391.36434,363.48817 c -3.59542,0.0228 -6.12131,2.50314 -6.12131,6.16682 0,3.64093 2.45763,6.12131 6.18957,6.12131 2.09354,0 3.82298,-0.75095 5.00628,-2.04802 l -1.38811,-1.47913 c -0.88747,0.91023 -2.09353,1.41086 -3.41336,1.41086 -1.91149,0 -3.3451,-1.16055 -3.75471,-3.02652 l 9.14783,0 c 0.31858,-4.36911 -1.41086,-7.14532 -5.66619,-7.14532 z m -3.52715,5.23383 c 0.27307,-1.93424 1.63842,-3.1403 3.5499,-3.1403 1.97976,0 3.27684,1.1833 3.36786,3.1403 l -6.91776,0 z"
           style="font-style:normal;font-variant:normal;font-weight:normal;font-stretch:normal;font-size:22.75578499px;line-height:100%;font-family:Montserrat;-inkscape-font-specification:'Montserrat, Normal';text-align:start;writing-mode:lr-tb;text-anchor:start;fill:#0089cb;fill-opacity:1"
           id="path4468" />
      </g>
    </g>
    <flowRoot
       xml:space="preserve"
       id="flowRoot4692"
       style="font-style:normal;font-variant:normal;font-weight:normal;font-stretch:normal;font-size:40px;line-height:125%;font-family:Metro;-inkscape-font-specification:'Metro, Normal';text-align:start;letter-spacing:0px;word-spacing:0px;writing-mode:lr-tb;text-anchor:start;fill:#000000;fill-opacity:1;stroke:none;stroke-width:1px;stroke-linecap:butt;stroke-linejoin:miter;stroke-opacity:1"><flowRegion
         id="flowRegion4694"><rect
           id="rect4696"
           width="302.85715"
           height="231.42857"
           x="331.42856"
           y="318.07648" /></flowRegion><flowPara
         id="flowPara4698" /></flowRoot>  </g>
</svg>
