<?xml version="1.0" encoding="UTF-8" standalone="no"?>
<!-- Created with Inkscape (http://www.inkscape.org/) -->

<svg
   xmlns:dc="http://purl.org/dc/elements/1.1/"
   xmlns:cc="http://creativecommons.org/ns#"
   xmlns:rdf="http://www.w3.org/1999/02/22-rdf-syntax-ns#"
   xmlns:svg="http://www.w3.org/2000/svg"
   xmlns="http://www.w3.org/2000/svg"
   xmlns:sodipodi="http://sodipodi.sourceforge.net/DTD/sodipodi-0.dtd"
   xmlns:inkscape="http://www.inkscape.org/namespaces/inkscape"
   width="83.671577mm"
   height="34.127419mm"
   viewBox="0 0 296.47409 120.92392"
   id="svg2"
   version="1.1"
   inkscape:version="0.91 r13725"
   sodipodi:docname="logo_bvii.svg"
   inkscape:export-filename="/home/bart/dev/bvii/website/static/images/logo/logo_bvii.png"
   inkscape:export-xdpi="344.41"
   inkscape:export-ydpi="344.41">
  <defs
     id="defs4" />
  <sodipodi:namedview
     id="base"
     pagecolor="#ffffff"
     bordercolor="#666666"
     borderopacity="1.0"
     inkscape:pageopacity="0"
     inkscape:pageshadow="2"
     inkscape:zoom="1.4"
     inkscape:cx="-51.317406"
     inkscape:cy="-49.275753"
     inkscape:document-units="px"
     inkscape:current-layer="layer1"
     showgrid="false"
     inkscape:window-width="1245"
     inkscape:window-height="1397"
     inkscape:window-x="58"
     inkscape:window-y="0"
     inkscape:window-maximized="0"
     fit-margin-top="0"
     fit-margin-left="0"
     fit-margin-right="0"
     fit-margin-bottom="0" />
  <metadata
     id="metadata7">
    <rdf:RDF>
      <cc:Work
         rdf:about="">
        <dc:format>image/svg+xml</dc:format>
        <dc:type
           rdf:resource="http://purl.org/dc/dcmitype/StillImage" />
        <dc:title></dc:title>
      </cc:Work>
    </rdf:RDF>
  </metadata>
  <g
     inkscape:label="Layer 1"
     inkscape:groupmode="layer"
     id="layer1"
     transform="translate(-21.478777,-911.13733)"
     style="opacity:1">
    <g
       transform="matrix(1.8344041,0,0,1.8344041,-187.47403,375.56619)"
       style="font-style:normal;font-variant:normal;font-weight:normal;font-stretch:normal;font-size:40px;line-height:125%;font-family:Metro;-inkscape-font-specification:'Metro, Normal';text-align:start;letter-spacing:0px;word-spacing:0px;writing-mode:lr-tb;text-anchor:start;opacity:1;fill:#0089cb;fill-opacity:1;stroke:none;stroke-width:1px;stroke-linecap:butt;stroke-linejoin:miter;stroke-opacity:1"
       id="flowRoot4684">
      <path
         d="m 153.42773,311.87919 q 0,3.28 -1.76,6.4 -1.76,3.12 -4.56,4.8 4.24,1.12 7.04,4.64 2.8,3.52 2.8,7.92 l 0,5.04 q 0,3.2 -1.76,6.32 -1.76,3.12 -4.72,5.04 -2.88,1.92 -6.08,1.92 l -7.12,0 q -0.4,1.6 -1.76,2.64 -1.36,1.12 -3.12,1.12 -2,0 -3.44,-1.44 -1.44,-1.44 -1.44,-3.44 0,-2.08 1.44,-3.52 1.44,-1.44 3.44,-1.44 1.84,0 3.2,1.12 1.36,1.04 1.68,2.8 l 7.12,0 q 2.8,0 5.2,-1.52 2.4,-1.6 3.76,-4.16 1.36,-2.56 1.36,-5.44 l 0,-5.04 q 0,-4.08 -2.96,-7.2 -2.96,-3.12 -7.04,-3.76 l -7.6,0 q -0.48,1.44 -1.84,2.4 -1.28,0.88 -2.88,0.88 -2,0 -3.44,-1.44 -1.44,-1.44 -1.44,-3.44 0,-2 1.44,-3.44 1.44,-1.44 3.44,-1.44 1.76,0 3.04,1.04 1.36,1.04 1.76,2.64 l 3.44,0 q 4.4,0 7.36,-2.8 3.04,-2.88 3.04,-7.2 l 0,-3.36 q 0,-4.48 -3.04,-7.52 -3.04,-3.04 -7.68,-3.04 l -16.72,0 q -0.64,3.04 -3.6,3.68 l 0,46.32 q 1.68,0.4 2.72,1.76 1.04,1.36 1.04,3.12 0,2 -1.44,3.44 -1.44,1.44 -3.44,1.44 -2,0 -3.52,-1.44 -1.44,-1.44 -1.44,-3.44 0,-1.76 1.04,-3.12 1.12,-1.36 2.8,-1.76 l 0,-46.24 q -1.6,-0.4 -2.72,-1.76 -1.12,-1.36 -1.12,-3.12 0,-2 1.44,-3.44 1.44,-1.44 3.52,-1.44 1.68,0 2.96,0.96 1.28,0.96 1.76,2.56 l 16.8,0 q 3.52,0 6.48,1.84 3.04,1.76 4.8,4.88 1.76,3.04 1.76,6.8 l 0,2.88 z m -34.56,-12.64 q 1.04,0 1.76,-0.64 0.72,-0.72 0.72,-1.68 0,-1.04 -0.72,-1.76 -0.72,-0.72 -1.76,-0.72 -1.04,0 -1.76,0.72 -0.72,0.72 -0.72,1.76 0,0.96 0.72,1.68 0.72,0.64 1.76,0.64 z m 13.52,26.32 q 1.04,0 1.76,-0.64 0.72,-0.72 0.72,-1.76 0,-1.04 -0.72,-1.68 -0.72,-0.72 -1.76,-0.72 -0.96,0 -1.68,0.72 -0.72,0.64 -0.72,1.68 0,1.04 0.72,1.76 0.72,0.64 1.68,0.64 z m -11.04,27.36 q 0,-1.04 -0.72,-1.76 -0.72,-0.72 -1.76,-0.72 -1.04,0 -1.76,0.72 -0.72,0.72 -0.72,1.76 0,0.88 0.72,1.6 0.72,0.72 1.76,0.72 1.04,0 1.76,-0.72 0.72,-0.72 0.72,-1.6 z m 11.04,2.32 q 1.04,0 1.76,-0.72 0.72,-0.72 0.72,-1.6 0,-1.04 -0.72,-1.76 -0.72,-0.72 -1.76,-0.72 -0.96,0 -1.68,0.72 -0.72,0.72 -0.72,1.76 0,0.88 0.72,1.6 0.72,0.72 1.68,0.72 z"
         style="font-style:normal;font-variant:normal;font-weight:normal;font-stretch:normal;font-size:80px;line-height:125%;font-family:Metro;-inkscape-font-specification:'Metro, Normal';text-align:start;writing-mode:lr-tb;text-anchor:start;fill:#0089cb;fill-opacity:1"
         id="path4225"
         inkscape:connector-curvature="0" />
      <path
         d="m 199.15648,316.99919 q -2.08,-1.68 -2.08,-4.16 0,-2.08 1.44,-3.52 1.44,-1.52 3.52,-1.52 2.08,0 3.52,1.52 1.52,1.44 1.52,3.52 0,2.08 -1.52,3.6 -1.44,1.44 -3.52,1.44 -0.56,0 -0.8,-0.08 l -13.36,30.96 q 2.24,1.52 2.24,4.08 0,2.08 -1.52,3.52 -1.44,1.52 -3.52,1.52 -2.16,0 -3.68,-1.52 -1.44,-1.44 -1.44,-3.52 0,-2.72 2.16,-4.08 l -13.36,-30.96 q -0.24,0.08 -0.8,0.08 -2,0 -3.52,-1.52 -1.52,-1.52 -1.52,-3.52 0,-2.08 1.52,-3.52 1.52,-1.52 3.52,-1.52 2.08,0 3.52,1.52 1.52,1.44 1.52,3.52 0,2.48 -2.08,4.16 l 13.52,30.88 1.2,0 13.52,-30.88 z m -31.2,-1.68 q 1.04,0 1.68,-0.64 0.72,-0.72 0.72,-1.76 0,-1.04 -0.72,-1.76 -0.64,-0.72 -1.68,-0.72 -1.04,0 -1.76,0.72 -0.72,0.72 -0.72,1.76 0,1.04 0.72,1.76 0.72,0.64 1.76,0.64 z m 34.08,0 q 1.12,0 1.84,-0.64 0.72,-0.72 0.72,-1.76 0,-1.04 -0.8,-1.76 -0.72,-0.72 -1.76,-0.72 -1.04,0 -1.76,0.72 -0.72,0.72 -0.72,1.76 0,1.04 0.72,1.76 0.72,0.64 1.76,0.64 z m -16.96,40.08 q 1.04,0 1.68,-0.72 0.72,-0.72 0.72,-1.84 0,-1.04 -0.72,-1.68 -0.64,-0.72 -1.68,-0.72 -1.12,0 -1.92,0.72 -0.72,0.64 -0.72,1.68 0,1.04 0.72,1.76 0.8,0.8 1.92,0.8 z"
         style="font-style:normal;font-variant:normal;font-weight:normal;font-stretch:normal;font-size:80px;line-height:125%;font-family:Metro;-inkscape-font-specification:'Metro, Normal';text-align:start;writing-mode:lr-tb;text-anchor:start;fill:#0089cb;fill-opacity:1"
         id="path4227"
         inkscape:connector-curvature="0" />
      <path
         d="m 231.68648,347.95919 q 1.68,0.4 2.72,1.76 1.12,1.36 1.12,3.12 0,2 -1.44,3.44 -1.44,1.44 -3.44,1.44 -2.08,0 -3.52,-1.44 -1.36,-1.44 -1.36,-3.44 0,-1.84 1.04,-3.2 1.04,-1.36 2.72,-1.68 l 0,-46.4 q -1.68,-0.32 -2.72,-1.6 -1.04,-1.36 -1.04,-3.12 0,-2.08 1.36,-3.44 1.44,-1.36 3.52,-1.36 2,0 3.44,1.44 1.44,1.36 1.44,3.36 0,1.68 -1.12,3.04 -1.04,1.28 -2.72,1.68 l 0,46.4 z m -3.52,-51.12 q 0,1.04 0.64,1.76 0.72,0.72 1.76,0.72 0.96,0 1.68,-0.72 0.72,-0.72 0.72,-1.76 0,-1.04 -0.72,-1.68 -0.72,-0.72 -1.68,-0.72 -1.04,0 -1.76,0.72 -0.64,0.64 -0.64,1.68 z m 2.4,58.4 q 0.96,0 1.68,-0.72 0.72,-0.64 0.72,-1.68 0,-1.04 -0.72,-1.68 -0.72,-0.72 -1.68,-0.72 -1.04,0 -1.76,0.72 -0.64,0.64 -0.64,1.68 0,1.04 0.64,1.68 0.72,0.72 1.76,0.72 z"
         style="font-style:normal;font-variant:normal;font-weight:normal;font-stretch:normal;font-size:80px;line-height:125%;font-family:Metro;-inkscape-font-specification:'Metro, Normal';text-align:start;writing-mode:lr-tb;text-anchor:start;fill:#0089cb;fill-opacity:1"
         id="path4229"
         inkscape:connector-curvature="0" />
      <path
         d="m 271.68648,347.95919 q 1.68,0.4 2.72,1.76 1.12,1.36 1.12,3.12 0,2 -1.44,3.44 -1.44,1.44 -3.44,1.44 -2.08,0 -3.52,-1.44 -1.36,-1.44 -1.36,-3.44 0,-1.84 1.04,-3.2 1.04,-1.36 2.72,-1.68 l 0,-46.4 q -1.68,-0.32 -2.72,-1.6 -1.04,-1.36 -1.04,-3.12 0,-2.08 1.36,-3.44 1.44,-1.36 3.52,-1.36 2,0 3.44,1.44 1.44,1.36 1.44,3.36 0,1.68 -1.12,3.04 -1.04,1.28 -2.72,1.68 l 0,46.4 z m -3.52,-51.12 q 0,1.04 0.64,1.76 0.72,0.72 1.76,0.72 0.96,0 1.68,-0.72 0.72,-0.72 0.72,-1.76 0,-1.04 -0.72,-1.68 -0.72,-0.72 -1.68,-0.72 -1.04,0 -1.76,0.72 -0.64,0.64 -0.64,1.68 z m 2.4,58.4 q 0.96,0 1.68,-0.72 0.72,-0.64 0.72,-1.68 0,-1.04 -0.72,-1.68 -0.72,-0.72 -1.68,-0.72 -1.04,0 -1.76,0.72 -0.64,0.64 -0.64,1.68 0,1.04 0.64,1.68 0.72,0.72 1.76,0.72 z"
         style="font-style:normal;font-variant:normal;font-weight:normal;font-stretch:normal;font-size:80px;line-height:125%;font-family:Metro;-inkscape-font-specification:'Metro, Normal';text-align:start;writing-mode:lr-tb;text-anchor:start;fill:#0089cb;fill-opacity:1"
         id="path4231"
         inkscape:connector-curvature="0" />
    </g>
    <flowRoot
       xml:space="preserve"
       id="flowRoot4692"
       style="font-style:normal;font-variant:normal;font-weight:normal;font-stretch:normal;font-size:40px;line-height:125%;font-family:Metro;-inkscape-font-specification:'Metro, Normal';text-align:start;letter-spacing:0px;word-spacing:0px;writing-mode:lr-tb;text-anchor:start;fill:#000000;fill-opacity:1;stroke:none;stroke-width:1px;stroke-linecap:butt;stroke-linejoin:miter;stroke-opacity:1"><flowRegion
         id="flowRegion4694"><rect
           id="rect4696"
           width="302.85715"
           height="231.42857"
           x="331.42856"
           y="318.07648" /></flowRegion><flowPara
         id="flowPara4698" /></flowRoot>  </g>
</svg>
